<svg version="1.1" xmlns="http://www.w3.org/2000/svg" x="0px" y="0px" viewBox="0 0 60 60" enable-background="new 0 0 60 60" xml:space="preserve"><g opacity="0.26"><polygon class="contact_options-list-item-icon-low_opacity" points="30 43 53 30.3 53 10 7 10 7 30.3 "/></g><path class="contact_options-list-item-icon-regular" d="M60 60H0V26.6l8-7.4v10.6l22 12.1 22-12.1V19.1l8 7.4V60zM2 58h56V27.4l-4-3.7v7.2L30 44.1 6 30.9v-7.2l-4 3.7V58z"/><path class="contact_options-list-item-icon-regular" d="M43.3 11H16.7L27.5 1c1.4-1.3 3.7-1.3 5.1 0L43.3 11zM21.8 9h16.4l-7-6.5c-0.6-0.6-1.7-0.6-2.4 0L21.8 9z"/><path fill="none" d="M1.1 27l57.5 31.7c0 0.1 0 0.1-0.1 0.2H1.1C1.1 59 1 58.9 1 58.9L1.1 27C1 27.1 1.1 27 1.1 27z"/><path class="contact_options-list-item-icon-regular" d="M59.3 60H1.1C0.5 60 0 59.5 0 58.9V26.1L1.1 26c0.2 0 0.4 0 0.5 0.1l58.2 32.1L59.3 60zM2 58h53.2L2 28.7V58z"/><path fill="none" d="M58.9 27L30 43l28.6 15.8c0 0.1 0 0.1-0.1 0.2h0.3c0.1 0 0.1-0.1 0.1-0.1L58.9 27C59 27.1 58.9 27 58.9 27z"/><path class="contact_options-list-item-icon-regular" d="M58.9 60h-1.6l0.2-0.7L27.9 43 58.7 26l0.3 0c0.6 0 1.1 0.5 1.1 1.1v31.8C60 59.5 59.5 60 58.9 60zM32.1 43L58 57.3V28.7L32.1 43z"/><path class="contact_options-list-item-icon-regular" d="M30 44.1L6 30.9V9h48v21.9L30 44.1zM8 29.7l22 12.1 22-12.1V11H8V29.7z"/><line class="contact_options-list-item-icon-background" x1="27" y1="17" x2="33" y2="17"/><path class="contact_options-list-item-icon-regular" d="M33 18h-6c-0.6 0-1-0.4-1-1s0.4-1 1-1h6c0.6 0 1 0.4 1 1S33.6 18 33 18z"/><line class="contact_options-list-item-icon-background" x1="35" y1="32" x2="42" y2="32"/><path class="contact_options-list-item-icon-regular" d="M42 33h-7c-0.6 0-1-0.4-1-1s0.4-1 1-1h7c0.6 0 1 0.4 1 1S42.6 33 42 33z"/><line class="contact_options-list-item-icon-background" x1="17" y1="24" x2="22" y2="24"/><path class="contact_options-list-item-icon-regular" d="M22 25h-5c-0.6 0-1-0.4-1-1s0.4-1 1-1h5c0.6 0 1 0.4 1 1S22.6 25 22 25z"/><line class="contact_options-list-item-icon-background" x1="30" y1="24" x2="38" y2="24"/><path class="contact_options-list-item-icon-regular" d="M38 25h-8c-0.6 0-1-0.4-1-1s0.4-1 1-1h8c0.6 0 1 0.4 1 1S38.6 25 38 25z"/><line class="contact_options-list-item-icon-background" x1="26" y1="24" x2="26" y2="24"/><path class="contact_options-list-item-icon-regular" d="M26 25c-0.3 0-0.5-0.1-0.7-0.3C25.1 24.5 25 24.3 25 24c0-0.3 0.1-0.5 0.3-0.7 0.4-0.4 1-0.4 1.4 0 0.2 0.2 0.3 0.5 0.3 0.7s-0.1 0.5-0.3 0.7C26.5 24.9 26.3 25 26 25z"/><line class="contact_options-list-item-icon-background" x1="21" y1="32" x2="31" y2="32"/><path class="contact_options-list-item-icon-regular" d="M31 33H21c-0.6 0-1-0.4-1-1s0.4-1 1-1h10c0.6 0 1 0.4 1 1S31.6 33 31 33z"/><line class="contact_options-list-item-icon-background" x1="17" y1="32" x2="17" y2="32"/><path class="contact_options-list-item-icon-regular" d="M17 33c-0.3 0-0.5-0.1-0.7-0.3C16.1 32.5 16 32.3 16 32c0-0.3 0.1-0.5 0.3-0.7 0.4-0.4 1-0.4 1.4 0 0.2 0.2 0.3 0.4 0.3 0.7 0 0.3-0.1 0.5-0.3 0.7C17.5 32.9 17.3 33 17 33z"/><line class="contact_options-list-item-icon-background" x1="42" y1="24" x2="42" y2="24"/><path class="contact_options-list-item-icon-regular" d="M42 25c-0.3 0-0.5-0.1-0.7-0.3C41.1 24.5 41 24.3 41 24c0-0.3 0.1-0.5 0.3-0.7 0.4-0.4 1-0.4 1.4 0 0.2 0.2 0.3 0.4 0.3 0.7 0 0.3-0.1 0.5-0.3 0.7C42.5 24.9 42.3 25 42 25z"/></svg>